<svg width="85" height="46" viewBox="0 0 85 46" fill="none" xmlns="http://www.w3.org/2000/svg">
<path d="M58.5622 10.2277L55.059 1.19096C54.9942 1.0243 54.8611 0.892968 54.6935 0.830838C54.5257 0.768707 54.3396 0.781665 54.1812 0.86588L51.2245 2.44859C50.5605 2.7937 49.9017 2.5546 48.794 2.10201C47.3035 1.49248 45.2858 0.670361 42.6586 2.28988C40.7484 1.16857 39.1183 1.55256 37.7936 1.86556C36.7838 2.10437 35.9861 2.29253 35.2221 1.86262C35.2076 1.85437 35.1926 1.84672 35.1773 1.83965L31.3143 0.0575495C31.0025 -0.0861432 30.6326 0.0484215 30.4868 0.359076C30.4868 0.359076 26.4545 8.93903 26.4519 8.94355C26.3058 9.25391 26.4501 9.65408 26.7828 9.78866C26.8364 9.81192 30.3868 11.41 30.726 11.5413C30.9919 11.6446 31.077 11.963 31.1959 12.6146C31.2575 12.9517 31.3252 13.3216 31.4739 13.6593L30.9035 14.7256C30.3037 15.8472 30.728 17.2479 31.85 17.8477C32.1877 18.0285 32.5575 18.1198 32.9312 18.1198C32.966 18.1198 33.0007 18.1177 33.0355 18.116C32.8688 19.0706 33.319 20.0674 34.2192 20.5491C34.8991 20.9127 35.7601 20.9054 36.4439 20.5205C36.3867 20.5526 36.8487 21.138 36.9035 21.1928C37.1226 21.4145 37.3867 21.5906 37.6747 21.7095C38.2586 21.9504 38.9191 21.9425 39.4959 21.6848C39.3328 21.7572 40.2676 22.7381 40.3675 22.8058C40.9396 23.1927 41.6707 23.3023 42.3309 23.1023C42.8168 22.9551 43.2311 22.6601 43.5238 22.259L44.2923 22.6815C44.6442 22.875 45.0243 22.9668 45.4 22.9668C46.2148 22.9668 47.0054 22.5352 47.425 21.7722C47.6853 21.299 47.7601 20.7731 47.6756 20.2772C48.4276 20.2204 49.1376 19.7984 49.5271 19.0897C49.7438 18.6951 49.831 18.2625 49.8036 17.8409C49.8943 17.8518 49.9853 17.8577 50.0772 17.8577C50.2939 17.8577 50.5121 17.8268 50.7267 17.7643C51.3201 17.5924 51.8094 17.201 52.1054 16.6628C52.353 16.2128 52.4322 15.7128 52.3639 15.2364C52.5465 15.2293 52.7297 15.2017 52.9104 15.1501C53.5114 14.9796 54.0076 14.5851 54.307 14.0403C54.5582 13.5839 54.6348 13.0747 54.56 12.5901L58.2245 11.0276C58.5349 10.8957 58.6841 10.5422 58.5622 10.2277ZM32.4394 16.7453C31.9258 16.4706 31.7309 15.829 32.0059 15.3148L33.0739 13.3181C33.3395 12.8216 33.9962 12.6128 34.5053 12.8849C35.0109 13.1544 35.2076 13.8101 34.9379 14.3145L33.8681 16.3145C33.7359 16.5604 33.5145 16.7406 33.2442 16.8224C32.9721 16.9055 32.6865 16.8778 32.4394 16.7453ZM35.6131 19.5244C35.3419 19.6066 35.056 19.5795 34.8089 19.447C34.2948 19.1722 34.1005 18.5306 34.3755 18.0164L35.8249 15.3074C36.0949 14.803 36.7509 14.6092 37.2539 14.8778C37.7539 15.1451 37.9573 15.8003 37.6861 16.3074L36.2389 19.0129C36.107 19.2605 35.8846 19.4422 35.6131 19.5244ZM38.8563 20.5933C38.5851 20.6755 38.2991 20.6484 38.0521 20.5159C37.538 20.2411 37.3436 19.5995 37.6186 19.0854L38.7891 16.8969C39.045 16.3843 39.7249 16.2006 40.2198 16.4644C40.4657 16.5954 40.6468 16.8172 40.729 17.0881C40.8117 17.3601 40.7843 17.6469 40.6521 17.894L39.482 20.0821C39.35 20.3294 39.1275 20.5112 38.8563 20.5933ZM41.9687 21.9063C41.6975 21.9885 41.4116 21.9608 41.1645 21.8289C40.651 21.5541 40.4561 20.9125 40.7311 20.3984L41.7552 18.4835C42.0252 17.9791 42.6831 17.7812 43.1866 18.0509C43.681 18.3139 43.9021 18.9853 43.6191 19.4806L42.595 21.3951C42.4619 21.6424 42.2399 21.8242 41.9687 21.9063ZM46.3302 21.1699C46.0493 21.6805 45.4056 21.8672 44.895 21.5862L44.1338 21.1675L44.721 20.0695C44.8638 19.8021 44.9509 19.5144 44.981 19.2209L45.9106 19.7317L45.9126 19.7329C46.4226 20.0165 46.6102 20.6608 46.3302 21.1699ZM53.2123 13.4387C53.0751 13.6884 52.8466 13.8695 52.5689 13.9484C52.2998 14.025 52.0207 13.9932 51.783 13.8586L47.6132 11.5035C47.3125 11.3339 46.9312 11.4396 46.7613 11.7406C46.5917 12.0409 46.6974 12.4226 46.9983 12.5925C46.9983 12.5925 50.5734 14.6148 50.5884 14.6231C51.0993 14.9108 51.2883 15.5557 51.0106 16.0615C50.8758 16.3074 50.6508 16.4859 50.3787 16.5651C50.1061 16.6443 49.8207 16.6131 49.5755 16.4779L45.0334 13.9397C44.7328 13.7703 44.3514 13.8772 44.1821 14.1779C44.0128 14.4785 44.1191 14.8598 44.4204 15.0292L48.0107 17.0501C48.5216 17.3378 48.7106 17.9826 48.433 18.4885C48.1521 18.9991 47.5083 19.1858 46.9978 18.9049L44.4519 17.4973C44.2655 17.2753 44.0376 17.0889 43.7752 16.9491C43.4605 16.7815 43.1095 16.6864 42.7529 16.6773C42.4817 16.6702 42.2037 16.7138 41.947 16.8009C41.826 16.2892 41.3495 15.6502 40.8095 15.3625C40.2677 15.0728 39.4724 15.0683 38.9812 15.2147C38.9747 15.1897 38.9679 15.164 38.96 15.139C38.7801 14.548 38.3834 14.0639 37.8431 13.7763C37.3652 13.5204 36.8225 13.4435 36.2958 13.5519C36.2796 13.4161 36.2519 13.2807 36.211 13.1464C36.031 12.5554 35.6344 12.0713 35.0941 11.7837C34.1824 11.2963 33.0868 11.4857 32.3859 12.1756C32.2567 11.5116 32.0311 10.7077 31.1789 10.3771C30.8427 10.2463 29.0058 9.41888 28.0191 8.97398C27.9596 8.94718 27.9048 8.92244 27.8545 8.89977L31.3547 1.45258L34.6323 2.96489C35.814 3.61801 36.9665 3.34622 38.0811 3.08238C39.2027 2.81737 40.273 2.56531 41.528 3.11271C41.243 3.35181 40.9594 3.61299 40.6794 3.8963C39.5463 5.04143 38.0973 6.123 36.3726 7.11118C36.2186 7.19952 36.1091 7.34851 36.0723 7.52225C36.0355 7.69598 36.0731 7.87677 36.1774 8.02047C38.4627 11.1697 41.1611 10.0776 43.3292 9.19982C44.7553 8.62238 45.9873 8.1239 46.9705 8.68452L52.7873 12.0001C53.2988 12.2905 53.4888 12.9361 53.2123 13.4387ZM54.0474 11.4508C53.8725 11.2397 53.6572 11.056 53.4064 10.9131L47.5896 7.59756C47.0737 7.3034 46.5431 7.18738 46.0046 7.18738C44.9672 7.18738 43.9018 7.61876 42.86 8.04039C40.9154 8.82746 39.2134 9.51652 37.6272 7.82102C39.1745 6.87875 40.4982 5.85581 41.5676 4.77514C42.0399 4.29753 42.5196 3.88941 42.9931 3.56225C45.2489 2.00306 46.8108 2.64146 48.3213 3.25896C49.4374 3.71538 50.5913 4.18684 51.8081 3.55401L54.1487 2.30109L57.1782 10.1159L54.0474 11.4508Z" fill="#4D94A0"/>
<path d="M9.188 36.3203L8.884 28.7683C8.884 28.7683 8.884 28.7257 8.884 28.6403C8.89467 28.555 8.932 28.459 8.996 28.3523C9.06 28.235 9.17733 28.1337 9.348 28.0483C9.52933 27.9523 9.79067 27.899 10.132 27.8883C10.5907 27.867 10.916 27.9203 11.108 28.0483C11.3107 28.1657 11.4333 28.2936 11.476 28.4323C11.5293 28.5603 11.556 28.6297 11.556 28.6403C11.556 28.651 11.5613 28.7737 11.572 29.0083C11.5827 29.243 11.5933 29.531 11.604 29.8723C11.6147 30.2137 11.6253 30.555 11.636 30.8963C11.6467 31.2377 11.6573 31.5257 11.668 31.7603C11.6787 31.9843 11.684 32.0963 11.684 32.0963L13.38 32.0003L13.124 28.7843C13.124 28.7843 13.1187 28.747 13.108 28.6723C13.108 28.587 13.1293 28.491 13.172 28.3843C13.2253 28.267 13.332 28.1603 13.492 28.0643C13.6627 27.9577 13.9133 27.8883 14.244 27.8563C14.5853 27.8243 14.8467 27.8457 15.028 27.9203C15.2093 27.9843 15.3427 28.0697 15.428 28.1763C15.5133 28.283 15.5613 28.379 15.572 28.4643C15.5933 28.5497 15.604 28.5923 15.604 28.5923L16.1 36.0643C16.1 36.0643 16.1053 36.123 16.116 36.2403C16.1267 36.347 16.1107 36.4803 16.068 36.6403C16.0253 36.7897 15.9187 36.923 15.748 37.0403C15.588 37.147 15.3373 37.2003 14.996 37.2003C14.6547 37.2003 14.388 37.1523 14.196 37.0563C14.004 36.9603 13.8653 36.8537 13.78 36.7363C13.6947 36.6083 13.6413 36.4963 13.62 36.4003C13.5987 36.3043 13.588 36.2563 13.588 36.2563L13.476 33.1843L11.732 33.2803L11.876 36.4163C11.876 36.4163 11.8707 36.459 11.86 36.5443C11.8493 36.619 11.8067 36.7097 11.732 36.8163C11.6573 36.9123 11.5293 37.003 11.348 37.0883C11.1667 37.163 10.9 37.2003 10.548 37.2003C10.196 37.2003 9.924 37.1577 9.732 37.0723C9.55067 36.9763 9.42267 36.875 9.348 36.7683C9.27333 36.651 9.22533 36.5497 9.204 36.4643C9.19333 36.3683 9.188 36.3203 9.188 36.3203ZM20.0688 30.5923C20.6021 30.5817 21.0554 30.6297 21.4288 30.7363C21.8021 30.8323 22.1114 30.9497 22.3568 31.0883C22.6021 31.227 22.7941 31.3497 22.9328 31.4563C23.0714 31.563 23.1728 31.6163 23.2368 31.6163C23.3541 31.627 23.4394 31.6857 23.4928 31.7923C23.5461 31.8883 23.5728 31.9363 23.5728 31.9363C23.5728 31.9363 23.5888 32.043 23.6208 32.2563C23.6528 32.4697 23.6901 32.7417 23.7328 33.0723C23.7861 33.403 23.8341 33.7497 23.8768 34.1123C23.9194 34.475 23.9568 34.8163 23.9888 35.1363C24.0208 35.4563 24.0368 35.707 24.0368 35.8883C24.0368 36.187 24.0154 36.427 23.9728 36.6083C23.9408 36.7897 23.8341 36.9283 23.6528 37.0243C23.4714 37.1097 23.1728 37.1683 22.7568 37.2003C22.4474 37.2217 22.2234 37.2163 22.0848 37.1843C21.9461 37.1523 21.8608 37.115 21.8288 37.0723C21.7968 37.0297 21.7808 37.0083 21.7808 37.0083C21.6848 37.083 21.5248 37.1363 21.3008 37.1683C21.0874 37.1897 20.8848 37.2003 20.6927 37.2003C20.5008 37.2003 20.4048 37.2003 20.4048 37.2003C20.4048 37.2003 20.2821 37.1843 20.0368 37.1523C19.7914 37.1097 19.4874 37.0297 19.1248 36.9123C18.7728 36.7843 18.4154 36.5977 18.0528 36.3523C17.7008 36.0963 17.4074 35.7603 17.1728 35.3443C16.9381 34.9177 16.8261 34.3897 16.8368 33.7603C16.8474 33.131 16.9648 32.619 17.1888 32.2243C17.4128 31.819 17.6848 31.5043 18.0048 31.2803C18.3248 31.0563 18.6394 30.8963 18.9488 30.8003C19.2688 30.7043 19.5354 30.6457 19.7488 30.6243C19.9621 30.603 20.0688 30.5923 20.0688 30.5923ZM21.2688 32.2403C21.2154 32.1657 21.0981 32.0857 20.9168 32.0003C20.7461 31.9043 20.5808 31.8243 20.4208 31.7603C20.2714 31.6963 20.1968 31.675 20.1968 31.6963C20.1968 31.707 20.1381 31.7977 20.0208 31.9683C19.9141 32.1283 19.8021 32.3683 19.6848 32.6883C19.5781 32.9977 19.5194 33.371 19.5088 33.8083C19.4981 34.2457 19.5568 34.6243 19.6848 34.9443C19.8128 35.2643 19.9674 35.5097 20.1488 35.6803C20.3408 35.851 20.5168 35.9363 20.6768 35.9363C20.7941 35.9363 20.9061 35.883 21.0128 35.7763C21.1194 35.659 21.2101 35.531 21.2848 35.3923C21.3594 35.243 21.4181 35.115 21.4608 35.0083C21.5034 34.9017 21.5248 34.8483 21.5248 34.8483L21.2688 32.2403ZM26.5666 37.2003C26.5666 37.2003 26.4973 37.2003 26.3586 37.2003C26.22 37.2003 26.06 37.179 25.8786 37.1363C25.708 37.0937 25.5533 37.0083 25.4146 36.8803C25.276 36.7523 25.196 36.5657 25.1746 36.3203C25.164 36.1177 25.1426 35.8297 25.1106 35.4563C25.0786 35.083 25.0413 34.6777 24.9986 34.2403C24.9666 33.7923 24.9346 33.371 24.9026 32.9763C24.8706 32.571 24.844 32.2403 24.8226 31.9843C24.8013 31.7283 24.7906 31.6003 24.7906 31.6003C24.7906 31.6003 24.796 31.5577 24.8066 31.4723C24.8173 31.3763 24.8546 31.2697 24.9186 31.1523C24.9933 31.035 25.116 30.9283 25.2866 30.8323C25.468 30.7363 25.7186 30.683 26.0386 30.6723C26.3586 30.6617 26.6093 30.6937 26.7906 30.7683C26.972 30.843 27.1 30.9337 27.1746 31.0403C27.26 31.1363 27.308 31.227 27.3186 31.3123C27.34 31.387 27.3506 31.4243 27.3506 31.4243C27.3506 31.4243 27.4466 31.3763 27.6386 31.2803C27.8413 31.1737 28.0973 31.067 28.4066 30.9603C28.7266 30.8537 29.0626 30.7897 29.4146 30.7683C29.468 30.7683 29.5693 30.7683 29.7186 30.7683C29.8786 30.7683 30.0493 30.8057 30.2306 30.8803C30.4226 30.9443 30.6093 31.0723 30.7906 31.2643C30.9826 31.4563 31.1426 31.739 31.2706 32.1123C31.3986 32.475 31.4733 32.955 31.4946 33.5523C31.5266 34.299 31.548 34.9123 31.5586 35.3923C31.58 35.8723 31.564 36.2457 31.5106 36.5123C31.468 36.7683 31.3613 36.9497 31.1906 37.0563C31.0306 37.1523 30.7746 37.2003 30.4226 37.2003C30.0813 37.2003 29.8306 37.1523 29.6706 37.0563C29.5106 36.9603 29.4093 36.8483 29.3666 36.7203C29.324 36.5817 29.3026 36.459 29.3026 36.3523C29.3026 36.2883 29.3133 36.1177 29.3346 35.8403C29.356 35.5523 29.372 35.227 29.3826 34.8643C29.3933 34.491 29.388 34.1283 29.3666 33.7763C29.356 33.4137 29.3133 33.1203 29.2386 32.8963C29.1746 32.6617 29.068 32.5497 28.9186 32.5603C28.7373 32.571 28.5666 32.6403 28.4066 32.7683C28.2573 32.8857 28.124 33.0243 28.0066 33.1843C27.8893 33.3337 27.7986 33.467 27.7346 33.5843C27.6706 33.691 27.6386 33.7443 27.6386 33.7443L27.7986 36.1603C27.7986 36.1603 27.7986 36.2137 27.7986 36.3203C27.7986 36.427 27.7666 36.5497 27.7026 36.6883C27.6386 36.8163 27.516 36.9337 27.3346 37.0403C27.164 37.147 26.908 37.2003 26.5666 37.2003ZM37.6335 26.7683C37.6335 26.7683 37.6975 26.779 37.8255 26.8003C37.9642 26.811 38.1188 26.843 38.2895 26.8963C38.4602 26.939 38.6148 27.0136 38.7535 27.1203C38.9028 27.2163 38.9828 27.355 38.9935 27.5363C39.0042 27.6536 39.0202 27.9096 39.0415 28.3043C39.0628 28.6883 39.0842 29.147 39.1055 29.6803C39.1375 30.2137 39.1642 30.7683 39.1855 31.3443C39.2175 31.9097 39.2442 32.443 39.2655 32.9443C39.2868 33.435 39.3028 33.835 39.3135 34.1443C39.3348 34.4537 39.3455 34.6083 39.3455 34.6083C39.3455 34.6083 39.3402 34.6723 39.3295 34.8003C39.3295 34.9283 39.2975 35.0883 39.2335 35.2803C39.1802 35.4723 39.0788 35.659 38.9295 35.8403C38.6095 36.235 38.2042 36.5603 37.7135 36.8163C37.2228 37.0723 36.5508 37.2003 35.6975 37.2003C35.1322 37.2003 34.5882 37.0937 34.0655 36.8803C33.5535 36.667 33.1322 36.331 32.8015 35.8723C32.4815 35.403 32.3268 34.795 32.3375 34.0483C32.3482 33.483 32.4708 32.987 32.7055 32.5603C32.9508 32.1337 33.2708 31.7817 33.6655 31.5043C34.0602 31.2163 34.4975 31.003 34.9775 30.8643C35.4682 30.7257 35.9588 30.6563 36.4495 30.6563L36.3375 27.8883C36.3375 27.8883 36.3268 27.8403 36.3055 27.7443C36.2842 27.6377 36.2948 27.515 36.3375 27.3763C36.3908 27.2377 36.5135 27.1097 36.7055 26.9923C36.8975 26.875 37.2068 26.8003 37.6335 26.7683ZM36.4975 32.0483C36.2522 32.027 36.0175 32.1177 35.7935 32.3203C35.5695 32.523 35.3828 32.7843 35.2335 33.1043C35.0948 33.4137 35.0255 33.723 35.0255 34.0323C35.0255 34.491 35.1002 34.8857 35.2495 35.2163C35.4095 35.547 35.6175 35.7123 35.8735 35.7123C36.0442 35.7123 36.1882 35.643 36.3055 35.5043C36.4228 35.3657 36.5135 35.227 36.5775 35.0883C36.6415 34.939 36.6735 34.8643 36.6735 34.8643L36.4975 32.0483Z" fill="#FFFFFF"/>
<path opacity="0.75" d="M43.3817 36.782C42.8606 36.782 42.3589 36.7159 41.8767 36.5837C41.4022 36.4437 41.025 36.2764 40.745 36.082L41.305 34.9737C41.585 35.1525 41.9194 35.3003 42.3083 35.417C42.6972 35.5337 43.0861 35.592 43.475 35.592C43.9339 35.592 44.2644 35.5298 44.4667 35.4053C44.6767 35.2809 44.7817 35.1137 44.7817 34.9037C44.7817 34.7325 44.7117 34.6042 44.5717 34.5187C44.4317 34.4253 44.2489 34.3553 44.0233 34.3087C43.7978 34.262 43.545 34.2192 43.265 34.1803C42.9928 34.1414 42.7167 34.0909 42.4367 34.0287C42.1644 33.9587 41.9156 33.8614 41.69 33.737C41.4644 33.6048 41.2817 33.4298 41.1417 33.212C41.0017 32.9942 40.9317 32.7064 40.9317 32.3487C40.9317 31.952 41.0444 31.6098 41.27 31.322C41.4956 31.0264 41.8106 30.8009 42.215 30.6453C42.6272 30.482 43.1133 30.4003 43.6733 30.4003C44.0933 30.4003 44.5172 30.447 44.945 30.5403C45.3728 30.6337 45.7267 30.7659 46.0067 30.937L45.4467 32.0453C45.1511 31.8664 44.8517 31.7459 44.5483 31.6837C44.2528 31.6137 43.9572 31.5787 43.6617 31.5787C43.2183 31.5787 42.8878 31.6448 42.67 31.777C42.46 31.9092 42.355 32.0764 42.355 32.2787C42.355 32.4653 42.425 32.6053 42.565 32.6987C42.705 32.792 42.8878 32.8659 43.1133 32.9203C43.3389 32.9748 43.5878 33.0214 43.86 33.0603C44.14 33.0914 44.4161 33.142 44.6883 33.212C44.9606 33.282 45.2094 33.3792 45.435 33.5037C45.6683 33.6203 45.855 33.7875 45.995 34.0053C46.135 34.2231 46.205 34.507 46.205 34.857C46.205 35.2459 46.0883 35.5842 45.855 35.872C45.6294 36.1598 45.3067 36.3853 44.8867 36.5487C44.4667 36.7042 43.965 36.782 43.3817 36.782ZM50.9959 30.4003C51.4937 30.4003 51.937 30.4975 52.3259 30.692C52.7226 30.8864 53.0337 31.1859 53.2592 31.5903C53.4848 31.987 53.5976 32.5003 53.5976 33.1303V36.7003H52.1392V33.317C52.1392 32.7648 52.007 32.3525 51.7426 32.0803C51.4859 31.8081 51.1242 31.672 50.6576 31.672C50.3153 31.672 50.012 31.742 49.7476 31.882C49.4831 32.022 49.277 32.232 49.1292 32.512C48.9892 32.7842 48.9192 33.1303 48.9192 33.5503V36.7003H47.4609V28.0436H48.9192V32.1503L48.6042 31.637C48.822 31.2403 49.137 30.937 49.5492 30.727C49.9692 30.5092 50.4515 30.4003 50.9959 30.4003ZM59.2859 36.7003V35.4403L59.2042 35.172V32.967C59.2042 32.5392 59.0759 32.2087 58.8192 31.9753C58.5626 31.7342 58.1737 31.6137 57.6526 31.6137C57.3026 31.6137 56.9564 31.6681 56.6142 31.777C56.2798 31.8859 55.9959 32.0375 55.7626 32.232L55.1909 31.1703C55.5253 30.9137 55.922 30.7231 56.3809 30.5987C56.8476 30.4664 57.3298 30.4003 57.8276 30.4003C58.7298 30.4003 59.4259 30.6181 59.9159 31.0537C60.4137 31.4814 60.6626 32.1464 60.6626 33.0487V36.7003H59.2859ZM57.3259 36.782C56.8592 36.782 56.4509 36.7042 56.1009 36.5487C55.7509 36.3853 55.4787 36.1637 55.2842 35.8837C55.0976 35.5959 55.0042 35.2731 55.0042 34.9153C55.0042 34.5653 55.0859 34.2503 55.2492 33.9703C55.4203 33.6903 55.6964 33.4687 56.0776 33.3053C56.4587 33.142 56.9642 33.0603 57.5942 33.0603H59.4026V34.0287H57.6992C57.2014 34.0287 56.867 34.1103 56.6959 34.2737C56.5248 34.4292 56.4392 34.6237 56.4392 34.857C56.4392 35.1214 56.5442 35.3314 56.7542 35.487C56.9642 35.6425 57.2559 35.7203 57.6292 35.7203C57.987 35.7203 58.3059 35.6387 58.5859 35.4753C58.8737 35.312 59.0798 35.0709 59.2042 34.752L59.4492 35.627C59.3092 35.9925 59.0564 36.2764 58.6909 36.4787C58.3331 36.6809 57.8781 36.782 57.3259 36.782ZM63.7241 35.312L63.7591 33.4803L67.0141 30.4703H68.7641L65.9991 33.247L65.2291 33.8887L63.7241 35.312ZM62.5341 36.7003V28.0436H63.9925V36.7003H62.5341ZM67.2358 36.7003L64.9608 33.8887L65.8825 32.722L69.0091 36.7003H67.2358ZM72.6288 36.782C71.9366 36.782 71.3299 36.6459 70.8088 36.3737C70.2955 36.0937 69.8949 35.7125 69.6071 35.2303C69.3271 34.7481 69.1871 34.1998 69.1871 33.5853C69.1871 32.9631 69.3233 32.4148 69.5955 31.9403C69.8755 31.4581 70.2566 31.0809 70.7388 30.8087C71.2288 30.5364 71.7849 30.4003 72.4071 30.4003C73.0138 30.4003 73.5544 30.5325 74.0288 30.797C74.5033 31.0614 74.8766 31.4348 75.1488 31.917C75.421 32.3992 75.5572 32.967 75.5572 33.6203C75.5572 33.6825 75.5533 33.7525 75.5455 33.8303C75.5455 33.9081 75.5416 33.982 75.5338 34.052H70.3421V33.0837H74.7638L74.1921 33.387C74.1999 33.0292 74.126 32.7142 73.9705 32.442C73.8149 32.1698 73.601 31.9559 73.3288 31.8003C73.0644 31.6448 72.7572 31.567 72.4071 31.567C72.0494 31.567 71.7344 31.6448 71.4621 31.8003C71.1977 31.9559 70.9877 32.1737 70.8321 32.4537C70.6844 32.7259 70.6105 33.0487 70.6105 33.422V33.6553C70.6105 34.0287 70.696 34.3592 70.8671 34.647C71.0383 34.9348 71.2794 35.1564 71.5905 35.312C71.9016 35.4675 72.2594 35.5453 72.6638 35.5453C73.0138 35.5453 73.3288 35.4909 73.6088 35.382C73.8888 35.2731 74.1377 35.102 74.3555 34.8687L75.1372 35.767C74.8572 36.0937 74.5033 36.3464 74.0755 36.5253C73.6555 36.6964 73.1733 36.782 72.6288 36.782Z" fill="#FFFFFF"/>
</svg>
